<svg width="23" height="22" viewBox="0 0 23 22" fill="none" xmlns="http://www.w3.org/2000/svg">
<path d="M17.4577 14.9804L16.3926 13.9616V10.0129C16.3926 7.58836 15.0386 5.55872 12.6772 5.02169V4.48466C12.6772 3.82918 12.124 3.30005 11.4388 3.30005C10.7535 3.30005 10.2003 3.82918 10.2003 4.48466V5.02169C7.8307 5.55872 6.48491 7.58046 6.48491 10.0129V13.9616L5.41983 14.9804C4.89968 15.4779 5.26296 16.3308 5.99778 16.3308H16.8715C17.6145 16.3308 17.9778 15.4779 17.4577 14.9804ZM14.7413 14.7513H8.13619V10.0129C8.13619 8.05431 9.38291 6.45902 11.4388 6.45902C13.4946 6.45902 14.7413 8.05431 14.7413 10.0129V14.7513ZM11.4388 18.7C12.347 18.7 13.09 17.9893 13.09 17.1206H9.78747C9.78747 17.5395 9.96145 17.9412 10.2711 18.2374C10.5808 18.5336 11.0008 18.7 11.4388 18.7Z" fill="white"/>
</svg>
