<svg width="14" height="14" viewBox="0 0 14 14" fill="none" xmlns="http://www.w3.org/2000/svg">
<path d="M11.0834 5.25008C11.0834 4.71385 10.9778 4.18287 10.7726 3.68746C10.5674 3.19204 10.2666 2.7419 9.88743 2.36273C9.50826 1.98356 9.05812 1.68278 8.56271 1.47757C8.06729 1.27237 7.53631 1.16675 7.00008 1.16675C6.46385 1.16675 5.93287 1.27237 5.43746 1.47757C4.94204 1.68278 4.4919 1.98356 4.11273 2.36273C3.73356 2.7419 3.43278 3.19204 3.22757 3.68746C3.02237 4.18287 2.91675 4.71385 2.91675 5.25008C2.91675 6.05916 3.15533 6.81166 3.56133 7.44633H3.55666L7.00008 12.8334L10.4435 7.44633H10.4394C10.8599 6.791 11.0834 6.02872 11.0834 5.25008ZM7.00008 7.00008C6.53595 7.00008 6.09083 6.81571 5.76264 6.48752C5.43446 6.15933 5.25008 5.71421 5.25008 5.25008C5.25008 4.78595 5.43446 4.34083 5.76264 4.01264C6.09083 3.68446 6.53595 3.50008 7.00008 3.50008C7.46421 3.50008 7.90933 3.68446 8.23752 4.01264C8.56571 4.34083 8.75008 4.78595 8.75008 5.25008C8.75008 5.71421 8.56571 6.15933 8.23752 6.48752C7.90933 6.81571 7.46421 7.00008 7.00008 7.00008Z" fill="#E30607"/>
</svg>
