<svg width="16" height="16" viewBox="0 0 16 16" fill="none" xmlns="http://www.w3.org/2000/svg">
<path d="M8.00015 12.4799C10.4641 12.4799 12.4801 10.4639 12.4801 7.9999C12.4801 5.5359 10.4641 3.5199 8.00015 3.5199C5.53615 3.5199 3.52015 5.5359 3.52015 7.9999C3.52015 10.4639 5.53615 12.4799 8.00015 12.4799ZM8.00015 2.3999C11.0801 2.3999 13.6001 4.9199 13.6001 7.9999C13.6001 11.0799 11.0801 13.5999 8.00015 13.5999C4.92015 13.5999 2.40015 11.0799 2.40015 7.9999C2.40015 4.9199 4.92015 2.3999 8.00015 2.3999ZM10.8001 9.0639L10.4081 9.7919L7.44015 8.1679V5.1999H8.28015V7.6639L10.8001 9.0639Z" fill="#534F4F"/>
</svg>
