<svg width="38" height="40" viewBox="0 0 38 40" fill="none" xmlns="http://www.w3.org/2000/svg">
<path d="M30.2653 24.1683L31.6903 22.6686C31.913 22.4342 32.3004 22.5983 32.3004 22.9357V29.7503C32.3004 30.9923 31.343 32 30.1629 32H14.4876C13.3074 32 12.35 30.9923 12.35 29.7503V13.2527C12.35 12.0107 13.3074 11.0031 14.4876 11.0031H26.6671C26.9833 11.0031 27.1436 11.4061 26.9209 11.6452L25.4959 13.1449C25.4291 13.2153 25.3401 13.2527 25.2421 13.2527H14.4876V29.7503H30.1629V24.4308C30.1629 24.3324 30.1985 24.2386 30.2653 24.1683ZM37.2391 14.7103L25.5449 27.0179L21.5192 27.4866C20.3524 27.6225 19.3594 26.5867 19.4885 25.3494L19.9338 21.1125L31.628 8.80496C32.6478 7.73168 34.2955 7.73168 35.3108 8.80496L37.2346 10.8297C38.2544 11.9029 38.2544 13.6418 37.2391 14.7103ZM32.8393 16.1586L30.252 13.4355L21.9779 22.1483L21.6528 25.2088L24.5607 24.8667L32.8393 16.1586ZM35.725 12.4232L33.8012 10.3985C33.6186 10.2063 33.3202 10.2063 33.1421 10.3985L31.7661 11.8467L34.3534 14.5697L35.7294 13.1215C35.9075 12.9247 35.9075 12.6153 35.725 12.4232Z" fill="#A2A0A0"/>
</svg>
