<svg width="54" height="40" viewBox="0 0 54 40" fill="none" xmlns="http://www.w3.org/2000/svg">
<path d="M35.2316 5C37.4666 5 39.6166 5.88333 41.1983 7.46833C42.7816 9.05 43.6666 11.1833 43.6666 13.4167V26.5833C43.6666 31.2333 39.8833 35 35.2316 35H18.7666C14.115 35 10.3333 31.2333 10.3333 26.5833V13.4167C10.3333 8.76667 14.0983 5 18.7666 5H35.2316ZM37.1166 13.6667C36.7666 13.6483 36.4333 13.7667 36.1816 14L28.6666 20C27.7 20.8017 26.315 20.8017 25.3333 20L17.8333 14C17.315 13.6167 16.5983 13.6667 16.1666 14.1167C15.7166 14.5667 15.6666 15.2833 16.0483 15.7833L16.2666 16L23.85 21.9167C24.7833 22.65 25.915 23.05 27.1 23.05C28.2816 23.05 29.4333 22.65 30.365 21.9167L37.8833 15.9L38.0166 15.7667C38.415 15.2833 38.415 14.5833 37.9983 14.1C37.7666 13.8517 37.4483 13.7 37.1166 13.6667Z" fill="#1D1A1A"/>
</svg>
