<svg width="40" height="40" viewBox="0 0 40 40" fill="none" xmlns="http://www.w3.org/2000/svg">
<path d="M28.7166 25.4029L26.8643 23.5506V16.3711C26.8643 11.9629 24.5094 8.27268 20.4027 7.29627V6.31986C20.4027 5.12807 19.4407 4.16602 18.2489 4.16602C17.0571 4.16602 16.095 5.12807 16.095 6.31986V7.29627C11.974 8.27268 9.63349 11.9486 9.63349 16.3711V23.5506L7.78118 25.4029C6.87656 26.3076 7.50836 27.8583 8.78631 27.8583H27.6971C28.9894 27.8583 29.6212 26.3076 28.7166 25.4029ZM23.9925 24.9865H12.5053V16.3711C12.5053 12.8101 14.6735 9.90961 18.2489 9.90961C21.8243 9.90961 23.9925 12.8101 23.9925 16.3711V24.9865ZM18.2489 32.166C19.8284 32.166 21.1207 30.8737 21.1207 29.2942H15.3771C15.3771 30.0559 15.6796 30.7863 16.2182 31.3249C16.7568 31.8635 17.4872 32.166 18.2489 32.166Z" fill="#1D1A1A"/>
</svg>
